<svg id="brand-logo" viewBox="0 0 245.5 204.1">
  <title>Brandon Frye</title>
  <path d="M77.4,30.2c-3.3,25.3-5.7,50.6-9.5,75.7-.8,4.6-1.6,9.5-2.2,14.2,7.9-12.2,16.6-21.2,32.1-21.2,26.9,0,32.7,26.7,32.7,48.4a153.5,153.5,0,0,1-3.8,35.1c-5.4,22-19.3,49-45.4,49-14.4,0-20.1-7.9-26.1-19.9-.5,5.7-.5,11.4-1.1,17.1H6.4L30.9,30.2ZM73.1,138c-12,0-14.4,28.8-14.4,37.6,0,5.7.5,15.2,8.4,15.2,12.5,0,15.2-27.5,15.2-36.5C82.3,148.3,81.2,138,73.1,138Z" transform="translate(-6.4 -27.3)"/>
  <path d="M219.2,74.3c-2.5-2.4-5.2-4.6-9-4.6-7.1,0-8.2,7.6-8.7,13.1l-2.2,18.8H216l-4.6,38.1H194.8l-10.9,89H137.4l10.9-89H135l4.6-38.1h13.6c1.9-16.9,2.2-35.1,9.5-49.3a45.4,45.4,0,0,1,40.8-25,78.9,78.9,0,0,1,21.2,3.3Z" transform="translate(-6.4 -27.3)"/>
  <path d="M221.4,231.3c-13.9,0-24.2-10.6-24.2-24.5,0-16.1,14.4-30.5,30.5-30.5,13.9,0,24.2,10.6,24.2,24.5C251.9,216.9,237.5,231.3,221.4,231.3Z" transform="translate(-6.4 -27.3)"/>
</svg>
